<?xml version="1.0" encoding="UTF-8" standalone="no"?>
<!-- Created with Inkscape (http://www.inkscape.org/) -->

<svg
   xmlns:dc="http://purl.org/dc/elements/1.1/"
   xmlns:cc="http://creativecommons.org/ns#"
   xmlns:rdf="http://www.w3.org/1999/02/22-rdf-syntax-ns#"
   xmlns:svg="http://www.w3.org/2000/svg"
   xmlns="http://www.w3.org/2000/svg"
   xmlns:sodipodi="http://sodipodi.sourceforge.net/DTD/sodipodi-0.dtd"
   xmlns:inkscape="http://www.inkscape.org/namespaces/inkscape"
   version="1.1"
   id="svg64"
   width="400"
   height="232"
   viewBox="0 0 400 232"
   sodipodi:docname="иероглифы.svg"
   inkscape:version="0.92.2 5c3e80d, 2017-08-06"
   inkscape:export-filename="/Users/alatielin/отрисоать.jpg.png"
   inkscape:export-xdpi="74"
   inkscape:export-ydpi="74">
  <metadata
     id="metadata70">
    <rdf:RDF>
      <cc:Work
         rdf:about="">
        <dc:format>image/svg+xml</dc:format>
        <dc:type
           rdf:resource="http://purl.org/dc/dcmitype/StillImage" />
        <dc:title></dc:title>
      </cc:Work>
    </rdf:RDF>
  </metadata>
  <defs
     id="defs68" />
  <sodipodi:namedview
     pagecolor="#ffffff"
     bordercolor="#666666"
     borderopacity="1"
     objecttolerance="10"
     gridtolerance="10"
     guidetolerance="10"
     inkscape:pageopacity="0"
     inkscape:pageshadow="2"
     inkscape:window-width="1283"
     inkscape:window-height="701"
     id="namedview66"
     showgrid="false"
     inkscape:zoom="1.4446923"
     inkscape:cx="190.01694"
     inkscape:cy="157.89552"
     inkscape:window-x="0"
     inkscape:window-y="0"
     inkscape:window-maximized="0"
     inkscape:current-layer="svg64" />
  <path
     style="fill:#000000;stroke:#000000;stroke-width:1.11712015px;stroke-linecap:butt;stroke-linejoin:miter;stroke-opacity:1"
     d="m 104.53515,177.11091 26.57669,-0.55683 c 0,0 9.32472,0.42891 13.95946,0 2.81192,-0.26023 5.53249,-1.90385 8.3355,-1.55518 3.20149,0.39827 6.35825,1.93266 8.84539,4.06091 3.47383,2.97255 4.55802,4.31136 4.0268,6.96038 -0.47025,2.34485 -1.44944,4.40965 -5.63748,4.17625 -3.92716,-0.21885 -15.57021,-1.11366 -15.57021,-1.11366 l -29.22863,-2.37644 -32.09739,1.50742 -19.472271,2.2413 c 0,0 -20.834042,4.1021 -28.192992,0.0198 -4.030724,-2.23601 -9.710444,-6.73259 -8.446682,-11.20416 0.775376,-2.74353 3.242159,-2.39197 5.965483,-1.94892 1.546417,0.25158 6.09964,3.95331 7.633424,4.27757 6.451139,1.36382 22.766727,-1.70427 22.766727,-1.70427 z"
     id="path76"
     inkscape:connector-curvature="0"
     sodipodi:nodetypes="ccsasssccccsssscc" />
  <path
     sodipodi:nodetypes="ccsasssccccsssscc"
     inkscape:connector-curvature="0"
     id="path884"
     d="m 107.18155,93.152216 32.54584,-1.438131 c 0,0 13.2684,-0.431152 19.98809,-2.044916 4.74678,-1.139961 9.76383,-2.0166 14.62367,-1.405401 3.1978,0.402164 5.80829,0.978856 9.13041,3.283172 4.64004,3.218437 5.28285,5.503256 4.57327,8.371416 -0.62809,2.538804 -1.93601,4.774404 -7.53004,4.521694 -5.24555,-0.23695 -20.79731,-1.20577 -20.79731,-1.20577 l -39.04103,-0.29769 -42.872888,1.6321 -27.888506,3.54037 c 0,0 -25.14377,4.67186 -34.973205,0.2518 C 9.5559639,105.93988 0.62723795,100.2361 2.3152602,95.394618 c 1.0356777,-2.970472 5.4043937,-2.215393 8.5050678,-0.34363 1.799557,1.086321 8.147364,3.445083 10.196058,3.796153 8.616862,1.476649 32.020501,-2.123653 32.020501,-2.123653 z"
     style="fill:#000000;stroke:#000000;stroke-width:1.34342968px;stroke-linecap:butt;stroke-linejoin:miter;stroke-opacity:1" />
  <path
     style="fill:#000000;stroke:#000000;stroke-width:0.89369631;stroke-linecap:butt;stroke-linejoin:miter;stroke-miterlimit:4;stroke-dasharray:none;stroke-opacity:1"
     d="m 92.934494,126.76553 c 0,0 0.639499,30.01443 -0.182583,44.6714 -0.222655,3.96974 -1.64477,5.64623 -9.212019,7.1436 -16.845446,3.33329 34.011298,3.29197 38.719818,-0.59028 -12.39764,-1.31095 -18.39137,-0.77175 -18.86351,-6.1948 -0.78595,-9.0276 -0.28707,-30.84352 -0.28707,-30.84352 l 0.51877,-48.795305 1.05179,-26.167476 c 0,0 1.36696,-25.299337 -0.61702,-37.068564 -1.01059,-5.995041 -11.47402,-11.841424 -18.956214,-12.699433 -6.550505,-0.751169 -0.965792,10.104373 1.946549,12.27729 4.084625,3.047564 5.558535,14.818522 5.558535,14.818522 0.79355,10.150029 0.230236,25.902169 0.230236,25.902169 z"
     id="path886"
     inkscape:connector-curvature="0"
     sodipodi:nodetypes="csscscccsssscc" />
  <path
     style="fill:#000000;stroke:#000000;stroke-width:1.11712015px;stroke-linecap:butt;stroke-linejoin:miter;stroke-opacity:1"
     d="m 346.92919,47.104103 c 10.37505,-4.357715 16.84819,-5.926517 24.10761,-6.693563 2.09537,-0.221399 4.23594,2.162153 3.9863,4.331129 -1.19057,10.344292 -8.88214,22.97658 -15.1859,36.617723 -1.97656,4.277204 -1.13894,8.66226 -1.13894,8.66226 3.38673,9.372135 13.55865,8.867715 24.29745,36.617738 0,0 3.56954,16.13663 0.37965,22.83685 -2.0792,4.36727 -5.26162,7.3901 -8.73189,6.29982 -16.86275,-5.2979 -27.79307,-9.30418 -20.50098,-1.18122 l 10.25048,11.41843 c 0,0 15.68974,15.22531 21.26028,11.02471 17.09051,-12.88758 12.14872,-47.24869 12.14872,-47.24869 0,0 0.86594,-14.55872 -14.04696,-29.13669 -4.49735,-4.396326 -19.14575,-11.401831 -16.32485,-16.143292 l 11.00978,-18.505734 c 0,0 8.85103,-12.744618 12.90802,-19.686949 2.13553,-3.654296 6.94942,-7.690665 2.27789,-12.599648 -3.99529,-4.198377 -6.69197,-8.329519 -15.9452,-6.299824 -10.42734,2.287233 -16.36086,5.817063 -26.95499,8.968889 -2.53998,0.755662 -9.89725,2.702692 -12.52838,2.449546 -4.39586,-0.422941 -7.38245,-6.028149 -11.76907,-5.512346 -2.14134,0.251789 -4.69934,1.322057 -4.93543,3.543652 -0.50464,4.748682 8.04152,9.38666 7.97261,15.355819 -0.40579,35.145827 -0.7593,103.553357 -0.7593,103.553357 0,0 -0.82715,38.5565 0.37965,48.42988 1.83984,15.05268 4.88417,14.94741 8.7319,11.41845 3.89128,-3.56893 4.16442,-9.62946 4.17611,-18.11201 0.0589,-42.70397 -3.23839,-80.43999 -0.37964,-136.233681 0.18268,-3.565255 -1.44075,-11.337044 5.31508,-14.174606 z"
     id="path890"
     inkscape:connector-curvature="0"
     sodipodi:nodetypes="ssssscssscscsscsssssssscsssss" />
  <path
     style="opacity:1;fill:#000000;stroke:#000000;stroke-width:1.11712015px;stroke-linecap:butt;stroke-linejoin:miter;stroke-opacity:1"
     d="m 235.24762,62.141935 c 2.11583,10.415258 1.25016,29.665541 1.25016,29.665541 0,0 0.62376,43.130894 0.15722,63.853254 -0.1553,6.89884 0.95306,10.68892 -0.80535,17.3443 -1.64702,6.23381 -4.87243,9.79512 -0.15724,17.02631 2.42386,3.71727 7.11538,5.80957 9.74057,4.12028 5.16589,-3.32423 5.24582,-6.95617 9.24181,-10.81383 8.9425,-8.63293 28.09393,-24.41182 28.09393,-24.41182 0,0 4.93294,-4.45819 7.08303,-4.60953 1.64623,-0.11588 3.10231,4.70506 3.10231,4.70506 4.13121,9.28971 3.98904,16.15502 11.07494,16.4415 3.59448,0.14534 6.31513,-4.97048 6.83366,-8.66226 0.8503,-6.0542 -3.54711,-11.85011 -6.83366,-16.93076 -5.18479,-8.01508 -19.74167,-20.47442 -19.74167,-20.47442 0,0 -7.83949,-5.66703 -6.94488,-2.93906 3.06471,9.34533 5.8983,10.77015 9.0655,17.01811 2.27769,4.49321 -1.09891,6.05559 -4.98149,8.80558 -13.01685,9.21969 -8.61773,4.73046 -21.14117,12.89783 -3.10562,2.02538 -5.49287,3.41607 -8.79705,3.94557 -8.89971,1.42625 -4.36035,-48.19583 -4.36035,-48.19583 l -0.31452,-53.973615 c 0,0 0.44145,-14.41177 -3.25958,-18.294639 -2.74002,-2.874658 -7.24534,-5.11632 -10.49171,-5.397022 -3.9143,-0.338454 -8.57029,2.607775 -2.38908,8.08564 4.44654,3.940606 3.97486,7.841421 4.57462,10.793811 z"
     id="path913"
     inkscape:connector-curvature="0"
     sodipodi:nodetypes="scssssscssssscsssssccssss" />
  <path
     style="opacity:0.95999995;fill:#000000;stroke:#000000;stroke-width:0.67027217;stroke-linecap:butt;stroke-linejoin:miter;stroke-miterlimit:4;stroke-dasharray:none;stroke-opacity:1"
     d="m 244.6984,86.347453 1.7084,7.618544 c 0,0 -0.59007,-8.613816 5.63189,-9.342616 12.60136,-1.476039 26.4855,-2.959779 39.1018,-3.565822 4.11784,-0.197806 5.95713,0.551572 6.17439,3.897815 0.35953,5.537952 1.16762,15.823956 -5.63749,16.969346 -11.35594,1.91135 -18.99993,4.72101 -39.59823,4.3871 -8.36415,-0.13559 -2.34604,-15.827003 -7.22353,-4.6853 -2.55679,5.84054 -0.69414,19.80129 -0.69414,19.80129 l 1.89826,14.17459 c 0,0 -0.2802,-18.44881 11.24239,-19.41673 7.4728,-0.62772 21.96926,-2.54361 21.96926,-2.54361 0,0 9.09077,-1.34347 10.7953,-1.40197 3.88621,-0.13333 5.83887,0.69476 6.71129,3.06257 1.27075,3.44888 6.35654,3.4582 8.05354,0.55684 3.73898,-6.39256 4.83214,-30.625717 4.83214,-30.625717 0,0 1.10582,-16.053412 1.61069,-25.61422 0.19111,-3.618736 6.50668,-9.48929 -0.26844,-15.034438 -2.64422,-2.164187 -4.0343,-3.130174 -6.97974,-5.56831 -2.5265,-2.091364 -6.44807,0.497828 -9.66425,0.835245 -3.76563,0.395066 -8.92385,4.571487 -11.27497,1.39208 -1.90675,-2.57851 -0.66855,-6.497906 -0.5369,-9.744542 0.13558,-3.343183 2.34845,-10.791082 0,-13.085531 -3.38609,-3.308261 -6.84532,-4.354393 -12.08032,-7.238802 -3.6798,-2.0275298 -7.91016,-0.526032 -8.59044,2.505739 -0.63684,2.838304 4.52388,5.955376 5.63749,8.630881 1.51005,3.62799 1.57422,7.754543 1.87915,11.693451 0.79703,10.295154 1.84434,11.428941 -10.73806,12.528696 -13.46383,1.176799 -17.685,0.427516 -17.685,0.427516 l 0.81326,15.903464 3.35169,1.535382 c 3.90095,-4.731474 -0.7671,-5.271693 7.81768,-6.288233 4.65215,-0.550867 20.54918,-3.184778 31.74216,-4.896155 2.50394,-0.382844 7.35829,-1.104929 9.8541,-1.541178 4.43392,-0.775018 4.45786,5.495388 4.51761,7.944735 0.13676,5.608128 0.82439,6.313291 -0.53691,9.384581 -0.92308,2.082616 -3.74428,1.954756 -7.12351,2.30887 -14.26046,1.494379 -19.65642,3.97722 -38.35037,5.683634 -7.31249,0.667492 -5.19891,-7.659384 -7.03438,-5.99356 z"
     id="path915"
     inkscape:connector-curvature="0"
     sodipodi:nodetypes="ccssssssccscssscsssssssssssscccssssssscc" />
</svg>
